<svg width="43" height="43" viewBox="0 0 43 43" fill="none" xmlns="http://www.w3.org/2000/svg">
<path d="M21.5 10.75C23.4708 10.75 25.0833 12.3625 25.0833 14.3333C25.0833 16.3042 23.4708 17.9167 21.5 17.9167C19.5291 17.9167 17.9166 16.3042 17.9166 14.3333C17.9166 12.3625 19.5291 10.75 21.5 10.75ZM21.5 28.6667C26.3375 28.6667 31.8916 30.9779 32.25 32.25H10.75C11.162 30.96 16.6804 28.6667 21.5 28.6667ZM21.5 7.16666C17.5404 7.16666 14.3333 10.3737 14.3333 14.3333C14.3333 18.2929 17.5404 21.5 21.5 21.5C25.4595 21.5 28.6666 18.2929 28.6666 14.3333C28.6666 10.3737 25.4595 7.16666 21.5 7.16666ZM21.5 25.0833C16.7162 25.0833 7.16663 27.4842 7.16663 32.25V35.8333H35.8333V32.25C35.8333 27.4842 26.2837 25.0833 21.5 25.0833Z" fill="black"/>
</svg>
