<svg width="43" height="43" viewBox="0 0 43 43" fill="none" xmlns="http://www.w3.org/2000/svg">
<path d="M25.0834 10.75V7.16668H17.9167V10.75H25.0834ZM7.16671 14.3333V34.0417H35.8334V14.3333H7.16671ZM35.8334 10.75C37.8221 10.75 39.4167 12.3446 39.4167 14.3333V34.0417C39.4167 36.0304 37.8221 37.625 35.8334 37.625H7.16671C5.17796 37.625 3.58337 36.0304 3.58337 34.0417L3.60129 14.3333C3.60129 12.3446 5.17796 10.75 7.16671 10.75H14.3334V7.16668C14.3334 5.17793 15.928 3.58334 17.9167 3.58334H25.0834C27.0721 3.58334 28.6667 5.17793 28.6667 7.16668V10.75H35.8334Z" fill="black"/>
</svg>
