<svg id="Layer_1" data-name="Layer 1" xmlns="http://www.w3.org/2000/svg" viewBox="0 0 48 48"><defs><style>.cls-1{fill:#eae2b7;}.cls-2{fill:#e5d285;}.cls-3{fill:#0077b6;}.cls-4{fill:#90e0ef;}.cls-5{fill:#ccc;}.cls-6{fill:#e8a113;}.cls-7{fill:#f7f3e2;}.cls-8{fill:#3b93b2;}.cls-9{fill:#db8c00;}.cls-10{fill:#bee7ea;}.cls-11{fill:#006693;}.cls-12{fill:#f9c74f;}.cls-13{fill:#f4d182;}.cls-14{fill:#f4b527;}.cls-15{fill:#495057;}</style></defs><rect class="cls-1" x="7" y="2" width="29" height="41" rx="2.5"/><path class="cls-2" d="M26.5,18A3.5,3.5,0,0,0,23,21.5V43H33.5A2.5,2.5,0,0,0,36,40.5V18Z"/><rect class="cls-3" x="24" y="19" width="21" height="27" rx="2.5"/><rect class="cls-4" x="27" y="22" width="15" height="5" rx="0.5"/><rect class="cls-5" x="32" y="29" width="4" height="4" rx="0.5"/><rect class="cls-5" x="27" y="29" width="4" height="4" rx="0.5"/><rect class="cls-5" x="32" y="34" width="4" height="4" rx="0.5"/><rect class="cls-5" x="27" y="34" width="4" height="4" rx="0.5"/><rect class="cls-5" x="32" y="39" width="4" height="4" rx="0.5"/><rect class="cls-5" x="27" y="39" width="4" height="4" rx="0.5"/><rect class="cls-5" x="37" y="30" width="5" height="12" rx="0.5"/><rect class="cls-5" x="19" y="7" width="14" height="6" rx="0.5"/><path class="cls-6" d="M19.5,41H9.5a2.5,2.5,0,0,0,0,5h10a2.5,2.5,0,0,0,0-5Z"/><path class="cls-6" d="M19.5,37H9.5a2.5,2.5,0,0,0,0,5h10a2.5,2.5,0,0,0,0-5Z"/><path class="cls-6" d="M19.5,33H9.5a2.5,2.5,0,0,0,0,5h10a2.5,2.5,0,0,0,0-5Z"/><path class="cls-6" d="M19.5,29H9.5a2.5,2.5,0,0,0,0,5h10a2.5,2.5,0,0,0,0-5Z"/><path class="cls-7" d="M7,20V6A1,1,0,0,1,9,6V20a1,1,0,0,1-2,0Z"/><path class="cls-7" d="M7,26V24a1,1,0,0,1,2,0v2a1,1,0,0,1-2,0Z"/><path class="cls-8" d="M24,25V23a1,1,0,0,1,2,0v2a1,1,0,0,1-2,0Z"/><path class="cls-8" d="M24,36V29a1,1,0,0,1,2,0v7a1,1,0,0,1-2,0Z"/><path class="cls-9" d="M16.7,34a8.5,8.5,0,0,0-7.2-4,8.75,8.75,0,0,0-2.18.29A2.49,2.49,0,0,0,9.5,34Z"/><path class="cls-9" d="M18,38a8.44,8.44,0,0,0-2-5H9.5a2.5,2.5,0,0,0,0,5Z"/><path class="cls-9" d="M7,39.5A2.5,2.5,0,0,0,9.5,42h7.74A8.52,8.52,0,0,0,18,38.5a8.29,8.29,0,0,0-.14-1.5H9.5A2.5,2.5,0,0,0,7,39.5Z"/><path class="cls-9" d="M9.5,41a2.5,2.5,0,0,0,0,5h4a8.52,8.52,0,0,0,4.13-5Z"/><path class="cls-10" d="M27,22.5v4a.5.5,0,0,0,.5.5h5.9A4.19,4.19,0,0,0,36,23.5a3.07,3.07,0,0,0-.41-1.5H27.5A.5.5,0,0,0,27,22.5Z"/><path class="cls-11" d="M42.5,46H40a1,1,0,0,1,0-2h2.5a.5.5,0,0,0,.5-.5V39a1,1,0,0,1,2,0v4.5A2.5,2.5,0,0,1,42.5,46Z"/><circle class="cls-12" cx="9.5" cy="38.5" r="7.5"/><path class="cls-13" d="M4,40.5a7.5,7.5,0,0,1,11.71-6.21A7.5,7.5,0,1,0,5.29,44.71,7.51,7.51,0,0,1,4,40.5Z"/><path class="cls-14" d="M13.71,32.29A7.5,7.5,0,0,1,3.29,42.71,7.5,7.5,0,1,0,13.71,32.29Z"/><path class="cls-15" d="M11.5,12.5a.5.5,0,0,0-1,0A2.68,2.68,0,0,0,13,15v.54a.5.5,0,0,0,1,0V15a2.68,2.68,0,0,0,2.5-2.46A2.68,2.68,0,0,0,14,10v-3A1.66,1.66,0,0,1,15.5,8.5a.5.5,0,0,0,1,0A2.68,2.68,0,0,0,14,6V5.5a.5.5,0,0,0-1,0V6A2.68,2.68,0,0,0,10.5,8.5,2.68,2.68,0,0,0,13,11v3A1.66,1.66,0,0,1,11.5,12.5Zm4,0A1.66,1.66,0,0,1,14,14v-2.9A1.66,1.66,0,0,1,15.5,12.5Zm-4-4A1.66,1.66,0,0,1,13,7.05V10A1.66,1.66,0,0,1,11.5,8.5Z"/><path class="cls-15" d="M21.5,21h-11a.5.5,0,0,0,0,1h11a.5.5,0,0,0,0-1Z"/><path class="cls-15" d="M18.5,24h-8a.5.5,0,0,0,0,1h8a.5.5,0,0,0,0-1Z"/><path class="cls-15" d="M10,43.5V43a2.68,2.68,0,0,0,2.5-2.46A2.68,2.68,0,0,0,10,38v-3a1.66,1.66,0,0,1,1.5,1.45.5.5,0,0,0,1,0A2.68,2.68,0,0,0,10,34V33.5a.5.5,0,0,0-1,0V34A2.68,2.68,0,0,0,6.5,36.5,2.68,2.68,0,0,0,9,39v3A1.66,1.66,0,0,1,7.5,40.5a.5.5,0,0,0-1,0A2.68,2.68,0,0,0,9,43v.54a.5.5,0,0,0,1,0Zm1.5-3A1.66,1.66,0,0,1,10,42v-2.9A1.66,1.66,0,0,1,11.5,40.5Zm-4-4A1.66,1.66,0,0,1,9,35.05V38A1.66,1.66,0,0,1,7.5,36.5Z"/></svg>