<?xml version="1.0" encoding="utf-8"?>
<!-- Generator: Adobe Illustrator 22.0.0, SVG Export Plug-In . SVG Version: 6.00 Build 0)  -->
<svg version="1.1" id="Layer_1" xmlns="http://www.w3.org/2000/svg" xmlns:xlink="http://www.w3.org/1999/xlink" x="0px" y="0px"
	 viewBox="0 0 256 256" style="enable-background:new 0 0 256 256;" xml:space="preserve">
<style type="text/css">
	.st0{fill:#60BAE2;}
	.st1{fill:#E9E9EA;}
	.st2{fill:#F75C64;}
	.st3{fill:#F9D0B4;}
	.st4{fill:#FCD770;}
	.st5{fill:#FFAE2C;}
	.st6{fill:#6DCC6D;}
	.st7{fill:#231F20;}
</style>
<g id="_69_CSR">
	<path class="st0" d="M228.443,31.041h22.605c1.352,0,2.448,1.096,2.448,2.448v74.574c0,1.352-1.096,2.448-2.448,2.448h-22.605
		c-1.352,0-2.448-1.096-2.448-2.448V33.489C225.995,32.137,227.091,31.041,228.443,31.041z"/>
	<path class="st0" d="M4.952,145.489h22.605c1.352,0,2.448,1.096,2.448,2.448v74.574c0,1.352-1.096,2.448-2.448,2.448H4.952
		c-1.352,0-2.448-1.096-2.448-2.448v-74.574C2.504,146.585,3.6,145.489,4.952,145.489z"/>
	<path class="st1" d="M214.693,105.731H226V37.016h-11.3c-1.352,0-2.448,1.096-2.448,2.448v63.819
		C212.252,104.632,213.344,105.727,214.693,105.731z"/>
	<path class="st1" d="M41.307,150.269H30v68.715h11.3c1.352,0,2.448-1.096,2.448-2.448v-63.819
		C43.748,151.368,42.656,150.273,41.307,150.269z"/>
	<path class="st2" d="M63.764,104L63.764,104c-3.279-3.282-8.598-3.284-11.879-0.005c-0.002,0.002-0.003,0.003-0.005,0.005l0,0
		c-0.181,0.181-0.474,0.181-0.655,0c0,0,0,0,0,0l0,0c-3.279-3.282-8.598-3.284-11.879-0.005c-0.002,0.002-0.003,0.003-0.005,0.005
		l0,0c-3.282,3.279-3.284,8.598-0.005,11.879c0.002,0.002,0.003,0.003,0.005,0.005l10.506,10.506l0.016,0.016
		c0.938,0.922,2.442,0.922,3.379,0l0.016-0.016l10.506-10.506C66.837,112.643,66.667,107.403,63.764,104z"/>
	<path class="st2" d="M102.243,165.361c4.394,1.297,8.931,2.048,13.508,2.236c9.428,0,20.542-1.124,26.592,2.414l22.879-22.879
		c10.912-10.912,10.912-28.603,0-39.515c0,0,0,0,0,0l0,0c-10.912-10.911-28.602-10.911-39.514,0c-0.602,0.602-1.577,0.602-2.179,0
		c-10.912-10.911-28.602-10.911-39.514,0l0,0c-10.912,10.912-10.912,28.603,0,39.515c0,0,0,0,0,0L102.243,165.361z"/>
	<path class="st3" d="M203.459,49.923c-8.738,0.948-17.576,0.292-26.079-1.936l-28.243-7.4c-16.032-4.201-33.073-1.915-47.431,6.362
		L62.978,71.58c-4.47,2.843-6.079,8.597-3.733,13.346l0,0c2.51,5.078,8.629,7.203,13.746,4.774l40.532-19.231l0,0
		c-2.631,1.8-4.344,4.134-4.344,7.175c0,13.145,17.328,10.755,31.071,10.755c8.515,0,21.962,4.588,30.96,8.078
		c6.496,2.515,13.499,3.444,20.426,2.712l20.605-2.163V48.965L203.459,49.923z"/>
	<path class="st3" d="M183.009,166.3l-40.532,19.231l0,0c2.631-1.8,4.344-4.134,4.344-7.175c0-13.145-17.328-10.755-31.071-10.755
		c-8.515,0-21.962-4.588-30.96-8.078c-6.496-2.515-13.499-3.444-20.426-2.712l-20.605,2.163v48.061l8.786-0.953
		c8.738-0.948,17.576-0.292,26.079,1.936l28.243,7.4c16.032,4.201,33.073,1.915,47.431-6.361l38.729-24.633
		c4.843-3.06,6.288-9.466,3.228-14.309C193.446,165.669,187.753,164.03,183.009,166.3z"/>
	<path class="st4" d="M206.812,139.534c-4.452-0.854-7.934-4.336-8.788-8.788c-0.025-0.108-0.132-0.175-0.239-0.151
		c-0.075,0.017-0.133,0.076-0.151,0.151c-0.854,4.452-4.336,7.934-8.788,8.788c-0.108,0.025-0.175,0.132-0.151,0.239
		c0.017,0.075,0.076,0.133,0.151,0.151c4.452,0.854,7.934,4.336,8.788,8.788c0.025,0.108,0.132,0.175,0.239,0.151
		c0.075-0.017,0.133-0.076,0.151-0.151c0.854-4.452,4.336-7.934,8.788-8.788c0.108-0.025,0.175-0.132,0.151-0.239
		C206.945,139.61,206.887,139.551,206.812,139.534z"/>
	<path class="st5" d="M28.087,62.237H19.4c-1.381,0-2.5-1.119-2.5-2.5s1.119-2.5,2.5-2.5h8.689c1.381,0,2.5,1.119,2.5,2.5
		s-1.119,2.5-2.5,2.5H28.087z"/>
	<path class="st5" d="M23.743,66.582c-1.381,0-2.5-1.119-2.5-2.5v-8.69c0-1.381,1.119-2.5,2.5-2.5s2.5,1.119,2.5,2.5v8.689
		C26.244,65.462,25.125,66.581,23.743,66.582C23.744,66.582,23.743,66.582,23.743,66.582z"/>
	<path class="st2" d="M211.324,205.65h-8.689c-1.381,0-2.5-1.119-2.5-2.5s1.119-2.5,2.5-2.5h8.689c1.381,0,2.5,1.119,2.5,2.5
		S212.705,205.65,211.324,205.65z"/>
	<path class="st2" d="M206.98,209.995c-1.381,0-2.5-1.119-2.5-2.5v-8.689c0-1.381,1.119-2.5,2.5-2.5s2.5,1.119,2.5,2.5v8.694
		C209.477,208.879,208.359,209.995,206.98,209.995z"/>
	<path class="st6" d="M41.006,81.254c0.663,0.001,1.299,0.263,1.77,0.73c0.116,0.116,0.219,0.243,0.31,0.38
		c0.09,0.137,0.167,0.283,0.23,0.435c0.062,0.15,0.109,0.306,0.14,0.465c0.034,0.161,0.051,0.325,0.05,0.49
		c0.001,0.165-0.016,0.329-0.05,0.49c-0.031,0.159-0.078,0.315-0.14,0.465c-0.063,0.152-0.14,0.298-0.23,0.435
		c-0.091,0.137-0.194,0.264-0.31,0.38c-0.719,0.709-1.79,0.921-2.725,0.54c-0.15-0.064-0.294-0.141-0.43-0.23
		c-0.137-0.089-0.265-0.193-0.38-0.31c-0.115-0.116-0.219-0.244-0.31-0.38c-0.09-0.137-0.167-0.283-0.23-0.435
		c-0.063-0.15-0.112-0.306-0.145-0.465c-0.032-0.161-0.048-0.325-0.05-0.49c0.002-0.165,0.018-0.329,0.05-0.49
		c0.033-0.159,0.081-0.314,0.144-0.464c0.063-0.152,0.14-0.298,0.23-0.435c0.091-0.136,0.195-0.264,0.31-0.38
		c0.115-0.117,0.243-0.221,0.38-0.31c0.136-0.089,0.28-0.166,0.43-0.23c0.152-0.062,0.309-0.109,0.47-0.14
		C40.68,81.271,40.843,81.254,41.006,81.254z"/>
	<path class="st0" d="M221.62,164.129c0.663,0.001,1.299,0.263,1.77,0.73c0.116,0.116,0.219,0.243,0.31,0.38
		c0.09,0.137,0.167,0.283,0.23,0.435c0.062,0.15,0.109,0.306,0.14,0.465c0.034,0.161,0.051,0.325,0.05,0.49
		c0.001,0.165-0.016,0.329-0.05,0.49c-0.031,0.159-0.078,0.315-0.14,0.465c-0.063,0.152-0.14,0.298-0.23,0.435
		c-0.091,0.137-0.194,0.264-0.31,0.38c-0.719,0.709-1.79,0.921-2.725,0.54c-0.15-0.064-0.294-0.141-0.43-0.23
		c-0.137-0.089-0.265-0.193-0.38-0.31c-0.115-0.116-0.219-0.244-0.31-0.38c-0.09-0.137-0.167-0.283-0.23-0.435
		c-0.063-0.15-0.112-0.306-0.145-0.465c-0.032-0.161-0.048-0.325-0.05-0.49c0.002-0.165,0.018-0.329,0.05-0.49
		c0.033-0.159,0.082-0.315,0.145-0.465c0.063-0.152,0.14-0.298,0.23-0.435c0.091-0.136,0.195-0.264,0.31-0.38
		c0.115-0.117,0.243-0.221,0.38-0.31c0.136-0.089,0.28-0.166,0.43-0.23c0.152-0.062,0.309-0.109,0.47-0.14
		C221.294,164.145,221.457,164.128,221.62,164.129z"/>
	<path class="st7" d="M251.049,113.011h-22.606c-2.731-0.003-4.945-2.217-4.948-4.948V33.489c0.004-2.731,2.217-4.944,4.948-4.947
		h22.605c2.733,0.001,4.949,2.214,4.952,4.947v74.574C255.997,110.796,253.782,113.009,251.049,113.011z M228.5,108.063
		L228.5,108.063z M228.5,108.011h22.554L251,33.489l-22.553,0.053L228.5,108.011z"/>
	<path class="st7" d="M226,108.231h-11.3c-2.731-0.004-4.944-2.217-4.947-4.948V39.464c0.003-2.731,2.216-4.944,4.947-4.948H226
		c1.381,0,2.5,1.119,2.5,2.5v68.715C228.5,107.112,227.381,108.231,226,108.231C226,108.231,226,108.231,226,108.231z
		 M214.75,103.283L214.75,103.283z M214.75,103.231h8.75V39.516h-8.8L214.75,103.231z"/>
	<path class="st7" d="M187.065,101.931c-5.731,0.003-11.413-1.055-16.76-3.119c-13.149-5.1-23.824-7.909-30.057-7.909
		c-1.8,0-3.663,0.042-5.541,0.083c-9.585,0.221-19.506,0.436-24.68-4.625c-2.279-2.312-3.493-5.469-3.351-8.713
		c0-0.398,0.021-0.796,0.065-1.192L74.062,91.961c-6.422,3.049-14.1,0.315-17.149-6.107c-2.787-5.87-0.761-12.897,4.723-16.384
		l38.729-24.633c0.03-0.02,0.062-0.038,0.093-0.057c14.914-8.646,32.648-11.024,49.313-6.613l28.242,7.4
		c8.207,2.157,16.74,2.79,25.176,1.868l8.786-0.953c1.373-0.149,2.606,0.843,2.755,2.215c0.01,0.09,0.015,0.18,0.015,0.27v48.062
		c0,1.28-0.966,2.352-2.239,2.486l-20.606,2.164C190.294,101.848,188.68,101.932,187.065,101.931z M140.249,85.9
		c8.762,0,22.164,4.485,31.865,8.247c6.128,2.364,12.729,3.24,19.261,2.557l18.366-1.927V51.753l-6.017,0.652
		c-9.041,0.989-18.186,0.312-26.982-2L148.5,43c-15.375-4.069-31.735-1.881-45.5,6.085l-38.683,24.6
		c-3.671,2.33-4.758,7.194-2.428,10.865c2.132,3.359,6.435,4.599,10.028,2.89l40.333-19.131c9.08-6.071,26.315-6.307,28.9-6.307
		c1.381,0,2.5,1.119,2.5,2.5c0,1.381-1.119,2.5-2.5,2.5c-5.739,0-19.47,1.111-25.958,5.334c-0.158,0.141-0.334,0.262-0.522,0.359
		c-1.849,1.338-2.988,2.97-2.988,4.952c-0.129,1.895,0.541,3.759,1.847,5.138c3.669,3.589,12.914,3.379,21.073,3.2
		C136.512,85.945,138.412,85.9,140.249,85.9z"/>
	<path class="st7" d="M51.545,129.6c-1.291,0.003-2.53-0.508-3.445-1.419l-0.02-0.02l-10.507-10.507
		c-4.277-4.237-4.309-11.138-0.073-15.415c3.755-3.79,9.701-4.306,14.052-1.218c4.336-3.045,10.233-2.532,13.979,1.214l0,0
		c4.258,4.256,4.26,11.157,0.004,15.415c-0.001,0.001-0.003,0.003-0.004,0.004L55.025,128.16
		C54.102,129.082,52.85,129.6,51.545,129.6z M45.283,104.042c-3.258-0.005-5.904,2.632-5.909,5.891
		c-0.002,1.571,0.622,3.078,1.734,4.187l10.444,10.443L62,114.119c2.306-2.303,2.308-6.038,0.005-8.344
		c-0.002-0.002-0.003-0.003-0.005-0.005l0,0c-2.303-2.306-6.038-2.308-8.344-0.005c-0.002,0.002-0.003,0.003-0.005,0.005
		c-1.157,1.157-3.033,1.157-4.19,0c-1.106-1.112-2.61-1.734-4.178-1.729L45.283,104.042z"/>
	<path class="st7" d="M27.557,227.459H4.951c-2.733-0.001-4.948-2.215-4.951-4.948v-74.574c0.003-2.731,2.216-4.944,4.947-4.948
		h22.61c2.731,0.003,4.945,2.217,4.948,4.948v74.574C32.502,225.242,30.288,227.456,27.557,227.459z M4.951,147.989L5,222.511
		l22.553-0.053l-0.052-74.47L4.951,147.989z M27.556,147.989L27.556,147.989z"/>
	<path class="st7" d="M41.308,221.484H30c-1.381,0-2.5-1.119-2.5-2.5v-68.715c0-1.381,1.119-2.5,2.5-2.5h11.3
		c2.731,0.004,4.944,2.217,4.947,4.948v63.818C46.244,219.263,44.036,221.476,41.308,221.484z M32.508,216.484h8.8l-0.053-63.715
		H32.5L32.508,216.484z M41.308,152.769L41.308,152.769z"/>
	<path class="st7" d="M122.929,220c-5.636-0.003-11.249-0.73-16.7-2.164l-28.242-7.4c-8.207-2.155-16.74-2.789-25.176-1.868
		l-8.786,0.953c-1.373,0.149-2.606-0.843-2.755-2.215c-0.01-0.09-0.015-0.18-0.015-0.27v-48.062c0-1.28,0.966-2.352,2.239-2.486
		l20.606-2.167c7.322-0.767,14.722,0.216,21.591,2.867c13.149,5.1,23.824,7.909,30.057,7.909c1.8,0,3.663-0.042,5.541-0.083
		c9.588-0.215,19.507-0.434,24.68,4.625c2.279,2.312,3.493,5.469,3.351,8.713c0,0.398-0.021,0.796-0.065,1.192l32.682-15.507
		c6.425-3.045,14.101-0.304,17.146,6.12c2.78,5.867,0.757,12.885-4.72,16.372l-38.729,24.633c-0.03,0.02-0.062,0.038-0.093,0.057
		C145.631,216.961,134.382,219.99,122.929,220z M60.36,203.153c6.377,0.003,12.727,0.825,18.894,2.447L107.5,213
		c15.374,4.068,31.734,1.881,45.5-6.082l38.683-24.6c3.669-2.334,4.75-7.2,2.416-10.869c-2.132-3.351-6.427-4.589-10.016-2.887
		l-40.333,19.129c-9.079,6.071-26.315,6.307-28.9,6.307c-1.381,0-2.5-1.119-2.5-2.5s1.119-2.5,2.5-2.5
		c5.739,0,19.47-1.111,25.958-5.334c0.158-0.141,0.334-0.262,0.522-0.359c1.849-1.338,2.988-2.97,2.988-4.952
		c0.129-1.895-0.541-3.759-1.847-5.138c-3.67-3.59-12.916-3.382-21.073-3.2c-1.914,0.043-3.814,0.085-5.651,0.085
		c-8.762,0-22.164-4.485-31.865-8.247c-6.128-2.364-12.729-3.241-19.261-2.557l-18.362,1.924v43.024l6.017-0.652
		C54.961,203.3,57.659,203.153,60.36,203.153z"/>
	<path class="st7" d="M142.343,172.511c-0.443,0-0.878-0.118-1.261-0.342c-4.274-2.5-12.106-2.324-19.684-2.157
		c-1.913,0.043-3.812,0.085-5.647,0.085c-4.797-0.179-9.552-0.958-14.155-2.32c-0.424-0.114-0.81-0.337-1.12-0.647l-18.23-18.23
		c-11.884-11.892-11.878-31.166,0.014-43.05c11.626-11.619,30.377-11.91,42.358-0.657c12.263-11.501,31.527-10.883,43.028,1.38
		c11.232,11.977,10.942,30.704-0.657,42.327l-22.878,22.879C143.642,172.248,143.006,172.511,142.343,172.511z M127.1,164.927
		c5.463,0,10.7,0.35,14.745,2.05l21.611-21.612c9.94-9.931,9.948-26.039,0.017-35.979s-26.039-9.948-35.979-0.017
		c-0.006,0.006-0.011,0.011-0.017,0.017c-1.598,1.528-4.116,1.528-5.714,0c-9.929-9.942-26.037-9.953-35.979-0.024
		s-9.953,26.037-0.024,35.979c0.008,0.008,0.016,0.016,0.024,0.024l17.753,17.753c3.977,1.152,8.08,1.816,12.217,1.979
		c1.8,0,3.661-0.042,5.537-0.083C123.223,164.971,125.174,164.927,127.1,164.927z"/>
</g>
</svg>
