<?xml version="1.0" encoding="utf-8"?>
<!-- Generator: Adobe Illustrator 21.0.0, SVG Export Plug-In . SVG Version: 6.00 Build 0)  -->
<svg version="1.1" id="Layer_1" xmlns="http://www.w3.org/2000/svg" xmlns:xlink="http://www.w3.org/1999/xlink" x="0px" y="0px"
	 viewBox="0 0 512 512" style="enable-background:new 0 0 512 512;" xml:space="preserve">
<style type="text/css">
	.st0{fill:#FBC749;}
	.st1{fill:#75B4E2;}
	.st2{fill:#E85558;}
	.st3{fill:#FFFFFF;}
	.st4{fill:#17171D;}
</style>
<g id="Law_Book">
	<g>
		<rect x="235.4" y="261.6" class="st0" width="6.2" height="6.2"/>
		<rect x="283.5" y="226.7" class="st1" width="32.4" height="6.2"/>
		<path class="st2" d="M189.3,118.9h11.3v131.5h52.4v8.7h19.3v-14.9h-7.5v-11.3h7.5v-6.2h-13.1V198h81.1v28.7h-13.1v6.2h7.5v11.3
			h-7.5v41.1h7.5v11.3h-7.5v6.2h13.1v28.7h-81.1v-28.7h13.1v-6.2h-7.5v-11.3h7.5v-14.9h-19.3v8.7h-52.4v76h198.3V87H194.9
			c-16.2,0-29.3,13.1-29.3,29.3v134.1h23.7V118.9z M241.6,110.7h116v46.2h-116V110.7z"/>
		<path class="st3" d="M410.1,366.4H194.9c-14.2,0-26.1,10.2-28.7,23.7h46.2v11.3h-46.2c2.6,13.5,14.5,23.7,28.7,23.7h203.9v-43
			h11.3v43h6.2V104.5h-6.2V366.4z"/>
		<rect x="283.5" y="244.2" class="st1" width="32.4" height="41.1"/>
		<rect x="252.9" y="121.9" class="st1" width="93.5" height="23.7"/>
		<rect x="95.8" y="261.6" class="st1" width="128.4" height="6.2"/>
		<path class="st2" d="M189.3,279.1h-23.7v88.6c6.2-6.4,14.4-10.8,23.7-12.1V279.1z"/>
		<rect x="270.4" y="209.2" class="st0" width="58.6" height="6.2"/>
		<rect x="283.5" y="296.6" class="st1" width="32.4" height="6.2"/>
		<polygon class="st0" points="270.4,314 270.4,320.2 328.9,320.2 328.9,314 327.1,314 272.2,314 		"/>
		<path class="st4" d="M357.7,110.7h-116v46.2h116V110.7z M346.4,145.6h-93.5v-23.7h93.5V145.6z"/>
		<path class="st4" d="M410.1,75.8H194.9c-22.4,0-40.6,18.2-40.6,40.6v134.1H84.5v28.7h69.8v116.6v0c0,22.4,18.2,40.6,40.6,40.6
			h232.6v-343h-17.5V75.8z M165.6,116.3c0-16.2,13.1-29.3,29.3-29.3h203.9v268.1H200.5v-76h52.4v-8.7h19.3v14.9h-7.5v11.3h7.5v6.2
			h-13.1v28.7h81.1v-28.7h-13.1v-6.2h7.5v-11.3h-7.5v-41.1h7.5v-11.3h-7.5v-6.2h13.1V198h-81.1v28.7h13.1v6.2h-7.5v11.3h7.5v14.9
			h-19.3v-8.7h-52.4V118.9h-11.3v131.5h-23.7V116.3z M235.4,267.8v-6.2h6.2v6.2H235.4z M283.5,232.9v-6.2h32.4v6.2H283.5z
			 M315.8,244.2v41.1h-32.4v-41.1H315.8z M270.4,215.4v-6.2h58.6v6.2H270.4z M283.5,296.6h32.4v6.2h-32.4V296.6z M327.1,314h1.8v6.2
			h-58.6V314h1.8H327.1z M95.8,267.8v-6.2h128.4v6.2H95.8z M165.6,279.1h23.7v76.4c-9.2,1.3-17.5,5.7-23.7,12.1V279.1z M416.2,104.5
			V425h-6.2v-43h-11.3v43H194.9c-14.2,0-26.1-10.2-28.7-23.7h46.2v-11.3h-46.2c2.6-13.5,14.5-23.7,28.7-23.7h215.2V104.5H416.2z"/>
	</g>
</g>
</svg>
