<?xml version="1.0" encoding="utf-8"?>
<!-- Generator: Adobe Illustrator 21.0.0, SVG Export Plug-In . SVG Version: 6.00 Build 0)  -->
<svg version="1.1" id="Layer_1" xmlns="http://www.w3.org/2000/svg" xmlns:xlink="http://www.w3.org/1999/xlink" x="0px" y="0px"
	 viewBox="0 0 512 512" style="enable-background:new 0 0 512 512;" xml:space="preserve">
<style type="text/css">
	.st0{fill:#FFFFFF;}
	.st1{fill:#FBC749;}
	.st2{fill:#E85558;}
	.st3{fill:#75B4E2;}
	.st4{fill:#17171D;}
</style>
<g id="Male_Lawyer">
	<g>
		<path class="st0" d="M285.3,203.6l0-47c-17.8-1.3-34.7-9-47.4-21.6c-13.6,13.5-32.4,21.8-53,21.8h-28l0,46.8
			c0,35.4,28.8,64.2,64.2,64.2S285.3,239,285.3,203.6z M229.8,163.1h34.9v11.3h-11.8v11.8h-11.3v-11.8h-11.8V163.1z M212.4,174.3
			h-11.8v11.8h-11.3v-11.8h-11.8v-11.3h34.9V174.3z"/>
		<path class="st1" d="M184.9,145.6c33.1,0,60.5-25.2,63.9-57.4c-3.3-0.7-6.7-1.1-10.2-1.1h-34.9c-25.8,0-46.8,21-46.8,46.8l0,11.8
			H184.9z"/>
		<polygon class="st1" points="232.2,351.1 265.5,340 252.5,314 250.8,314 		"/>
		<path class="st0" d="M302.8,186.2V160c0-1.7-1.4-3.1-3.1-3.1h-3.1l0,39.7C300.3,194.6,302.8,190.7,302.8,186.2z"/>
		<polygon class="st1" points="210,351.1 191.4,314 189.6,314 176.6,340 		"/>
		<path class="st1" d="M285.3,145.3l0-11.6c0-18.2-10.5-34-25.7-41.7c-1.8,12.8-6.9,24.6-14.3,34.5C256,137.4,270.2,144,285.3,145.3
			z"/>
		<path class="st0" d="M142.5,156.9c-1.7,0-3.1,1.4-3.1,3.1v26.2c0,4.5,2.5,8.4,6.2,10.4l0-39.7H142.5z"/>
		<polygon class="st1" points="226.7,425 250.4,425 250.4,356.9 226.7,364.8 		"/>
		<polygon class="st2" points="357.7,343.3 346.4,343.3 346.4,338.2 296.6,314.8 296.6,372.6 407.5,372.6 407.5,314.8 357.7,338.2 
					"/>
		<path class="st3" d="M285.3,383.9v-68.7c-3.8-0.7-7.8-1.1-11.8-1.1h-8.3l16.3,32.6l-19.8,6.6V425h76l0-41.1H285.3z"/>
		<polygon class="st2" points="296.6,302.4 352,328.4 407.5,302.4 407.5,296.6 296.6,296.6 		"/>
		<polygon class="st1" points="191.8,425 215.4,425 215.4,364.8 191.8,356.9 		"/>
		<path class="st0" d="M241.6,276.2c-6.5,1.9-13.4,2.9-20.6,2.9c-7.1,0-14-1-20.6-2.9v30.8l20.6,41.1l20.6-41.1V276.2z"/>
		<path class="st3" d="M177,314h-8.3c-35.4,0-64.2,28.8-64.2,64.2V425h76v-71.8l-19.8-6.6L177,314z"/>
		<polygon class="st4" points="177.4,174.3 189.3,174.3 189.3,186.2 200.5,186.2 200.5,174.3 212.4,174.3 212.4,163.1 177.4,163.1 
					"/>
		<polygon class="st4" points="241.6,186.2 252.9,186.2 252.9,174.3 264.7,174.3 264.7,163.1 229.8,163.1 229.8,174.3 241.6,174.3 
					"/>
		<path class="st4" d="M375.1,267.8h-46.2v17.5h-43.7v18.4c-3.9-0.6-7.8-1-11.8-1h-20.6V272c24.3-11.4,41.6-35.3,43.5-63.5
			c10.1-2.5,17.6-11.6,17.6-22.4V160c0-7.9-6.4-14.4-14.4-14.4h-3.1l0-11.8c0-32-26-58-58-58h-34.9c-32,0-58,26-58,58l0,11.8h-3.1
			c-7.9,0-14.4,6.4-14.4,14.4v26.2c0,10.9,7.5,20,17.6,22.4c1.8,28.1,19.1,52.1,43.5,63.5v30.7h-20.6c-41.6,0-75.5,33.9-75.5,75.5
			v58h255.7l0-52.4h69.8v-98.6h-43.7V267.8z M299.7,156.9c1.7,0,3.1,1.4,3.1,3.1v26.2c0,4.5-2.5,8.4-6.2,10.4l0-39.7H299.7z
			 M139.4,186.2V160c0-1.7,1.4-3.1,3.1-3.1h3.1l0,39.7C141.9,194.6,139.4,190.7,139.4,186.2z M340.2,279.1h23.7v6.2h-23.7V279.1z
			 M285.3,133.8l0,11.6c-15.1-1.3-29.3-8-40-18.8c7.4-9.9,12.5-21.7,14.3-34.5C274.8,99.8,285.3,115.6,285.3,133.8z M203.6,87h34.9
			c3.5,0,6.9,0.4,10.2,1.1c-3.4,32.2-30.7,57.4-63.9,57.4h-28l0-11.8C156.9,108,177.8,87,203.6,87z M156.9,203.6l0-46.8h28
			c20.6,0,39.4-8.3,53-21.8c12.7,12.6,29.6,20.2,47.4,21.6l0,47c0,35.4-28.8,64.2-64.2,64.2S156.9,239,156.9,203.6z M265.5,340
			l-33.3,11.1l18.6-37.1h1.8L265.5,340z M189.6,314h1.8l18.6,37.1L176.6,340L189.6,314z M180.5,425h-76v-46.7
			c0-35.4,28.8-64.2,64.2-64.2h8.3l-16.3,32.6l19.8,6.6V425z M215.4,425h-23.7v-68l23.7,7.9V425z M200.5,307.1v-30.8
			c6.5,1.9,13.4,2.9,20.6,2.9c7.1,0,14-1,20.6-2.9v30.8l-20.6,41.1L200.5,307.1z M250.4,425h-23.7v-60.2l23.7-7.9V425z M261.6,425
			v-71.8l19.8-6.6L265.1,314h8.3c4,0,8,0.4,11.8,1.1v68.7h52.4l0,41.1H261.6z M407.5,372.6h-111v-57.8l49.9,23.4v5.2h11.3v-5.2
			l49.9-23.4V372.6z M407.5,296.6v5.8l-55.5,26l-55.5-26v-5.8H407.5z"/>
	</g>
</g>
</svg>
