<svg id="Layer_1" data-name="Layer 1" xmlns="http://www.w3.org/2000/svg" viewBox="0 0 48 48"><defs><style>.cls-1{fill:#eae2b7;}.cls-2{fill:#e5d285;}.cls-3{fill:#0077b6;}.cls-4{fill:#f7f3e2;}.cls-5{fill:#3fa34d;}.cls-6{fill:#f9c74f;}.cls-7{fill:#3b93b2;}.cls-8{fill:#6bb272;}.cls-9{fill:#288e2d;}.cls-10{fill:#f4d182;}.cls-11{fill:#495057;}</style></defs><rect class="cls-1" x="11" y="5" width="29" height="41" rx="2.5"/><path class="cls-2" d="M38,5.05a2.73,2.73,0,0,0-.5,0h-24A2.5,2.5,0,0,0,11,7.5v36a2.73,2.73,0,0,0,.05.5H34.5A3.5,3.5,0,0,0,38,40.5Z"/><rect class="cls-1" x="8" y="2" width="29" height="41" rx="2.5"/><path class="cls-2" d="M38.5,30a8.5,8.5,0,0,0-4,16h3A2.5,2.5,0,0,0,40,43.5V30.14A8.29,8.29,0,0,0,38.5,30Z"/><rect class="cls-3" x="27" y="19" width="4" height="12" rx="0.5"/><rect class="cls-3" x="21" y="21" width="4" height="10" rx="0.5"/><rect class="cls-3" x="15" y="26" width="4" height="5" rx="0.5"/><path class="cls-4" d="M8,19V5a1,1,0,0,1,2,0V19a1,1,0,0,1-2,0Z"/><path class="cls-4" d="M35,20V6a1,1,0,0,1,2,0V20a1,1,0,0,1-2,0Z"/><path class="cls-4" d="M8,35V24a1,1,0,0,1,2,0V35a1,1,0,0,1-2,0Z"/><circle class="cls-5" cx="38.5" cy="38.5" r="7.5"/><path class="cls-6" d="M40.06,38.5l1.16-2.33a1.49,1.49,0,0,0-.06-1.46A1.51,1.51,0,0,0,39.88,34H37.12a1.51,1.51,0,0,0-1.28.71,1.49,1.49,0,0,0-.06,1.46l1.16,2.33-1.16,2.33a1.49,1.49,0,0,0,.06,1.46,1.51,1.51,0,0,0,1.28.71h2.76a1.51,1.51,0,0,0,1.28-.71,1.49,1.49,0,0,0,.06-1.46Z"/><path class="cls-7" d="M28.5,26A3.28,3.28,0,0,0,31,24.79V19.5a.5.5,0,0,0-.5-.5h-3a.5.5,0,0,0-.5.5v6.1A3.11,3.11,0,0,0,28.5,26Z"/><path class="cls-7" d="M22.5,28A3.28,3.28,0,0,0,25,26.79V21.5a.5.5,0,0,0-.5-.5h-3a.5.5,0,0,0-.5.5v6.1A3.11,3.11,0,0,0,22.5,28Z"/><path class="cls-7" d="M16.5,29A3.28,3.28,0,0,0,19,27.79V26.5a.5.5,0,0,0-.5-.5h-3a.5.5,0,0,0-.5.5v2.1A3.11,3.11,0,0,0,16.5,29Z"/><path class="cls-8" d="M33,40.5a7.5,7.5,0,0,1,11.71-6.21A7.5,7.5,0,1,0,34.29,44.71,7.51,7.51,0,0,1,33,40.5Z"/><path class="cls-9" d="M42.71,32.29A7.5,7.5,0,0,1,32.29,42.71,7.5,7.5,0,1,0,42.71,32.29Z"/><path class="cls-10" d="M35.84,34.71a1.49,1.49,0,0,0-.06,1.46l.87,1.75A3,3,0,0,0,38.82,34h-1.7A1.51,1.51,0,0,0,35.84,34.71Z"/><path class="cls-10" d="M35.78,40.83A1.46,1.46,0,0,0,35.7,42l.3,0a3,3,0,0,0,3-3H36.69Z"/><path class="cls-11" d="M13.5,11h5a.5.5,0,0,0,0-1h-5a.5.5,0,0,0,0,1Z"/><path class="cls-11" d="M17.5,7h13a.5.5,0,0,0,0-1h-13a.5.5,0,0,0,0,1Z"/><path class="cls-11" d="M20.5,10a.5.5,0,0,0,0,1h2a.5.5,0,0,0,0-1Z"/><path class="cls-11" d="M12.5,37h8a.5.5,0,0,0,0-1h-8a.5.5,0,0,0,0,1Z"/><path class="cls-11" d="M24.5,37a.5.5,0,0,0,0-1h-2a.5.5,0,0,0,0,1Z"/><path class="cls-11" d="M27.5,39h-15a.5.5,0,0,0,0,1h15a.5.5,0,0,0,0-1Z"/><path class="cls-11" d="M32.5,30h-19a.5.5,0,0,0,0,1h19a.5.5,0,0,0,0-1Z"/><path class="cls-11" d="M13.5,14h12a.5.5,0,0,0,0-1h-12a.5.5,0,0,0,0,1Z"/><path class="cls-10" d="M36.94,38.5h0l-1.16,2.33a1.5,1.5,0,0,0-.11,1,2.54,2.54,0,0,0,.83.15,2.5,2.5,0,0,0,2.29-3.5Z"/></svg>