<svg id="Layer_1" data-name="Layer 1" xmlns="http://www.w3.org/2000/svg" viewBox="0 0 48 48"><defs><style>.cls-1{fill:#0077b6;}.cls-2{fill:#006693;}.cls-3{fill:#3b93b2;}.cls-4{fill:#3fa34d;}.cls-5{fill:#6bb272;}.cls-6{fill:#288e2d;}.cls-7{fill:#495057;}.cls-8{fill:#ccc;}.cls-9{fill:#efefef;}.cls-10{fill:#a0a0a0;}.cls-11{fill:#c91329;}.cls-12{fill:#bf586f;}</style></defs><rect class="cls-1" x="2" y="7" width="36" height="23" rx="1.5"/><path class="cls-2" d="M7.5,10A2.5,2.5,0,0,0,5,12.5V30H36.5A1.5,1.5,0,0,0,38,28.5V10Z"/><rect class="cls-1" x="6" y="11" width="36" height="23" rx="1.5"/><path class="cls-3" d="M25,13H9a1,1,0,0,1,0-2H25a1,1,0,0,1,0,2Z"/><path class="cls-3" d="M6,28V22a1,1,0,0,1,2,0v6a1,1,0,0,1-2,0Z"/><path class="cls-2" d="M31,34H15a1,1,0,0,1,0-2H31a1,1,0,0,1,0,2Z"/><path class="cls-2" d="M42,20v7a1,1,0,0,1-2,0V20a1,1,0,0,1,2,0Z"/><path class="cls-4" d="M44.83,26.84a1.85,1.85,0,0,0-1.66-.42c-1.06.25-2.28-.3-4-1.78a1.83,1.83,0,0,0-2.42,0c-1.68,1.48-2.9,2-4,1.78a1.89,1.89,0,0,0-1.66.42,1.81,1.81,0,0,0-.58,1.57L31.41,35a3.13,3.13,0,0,0,1.37,2.22l4.94,3.29a.48.48,0,0,0,.56,0l4.94-3.29a3.67,3.67,0,0,0,1.45-2.85l.74-5.92A1.8,1.8,0,0,0,44.83,26.84Z"/><path class="cls-5" d="M33.34,37.34a1,1,0,0,1-.56-.17A3.13,3.13,0,0,1,31.41,35l-.82-6.54a1.82,1.82,0,0,1,2.24-2c1.08.26,2.26-.28,4-1.78a1,1,0,0,1,1.41.09,1,1,0,0,1-.09,1.41,9,9,0,0,1-3.72,2.22,2,2,0,0,0-1.52,2.18l.53,4.21a1.16,1.16,0,0,0,.52.78,1,1,0,0,1-.58,1.81Z"/><path class="cls-6" d="M38,40.45a1,1,0,0,1-.55-1.84l4.66-3.1a1,1,0,0,1,1.38.27,1,1,0,0,1-.27,1.39l-4.67,3.11A1,1,0,0,1,38,40.45Z"/><path class="cls-7" d="M9.5,28h3a.5.5,0,0,0,0-1h-3a.5.5,0,0,0,0,1Z"/><path class="cls-7" d="M21.5,27h-7a.5.5,0,0,0,0,1h7a.5.5,0,0,0,0-1Z"/><path class="cls-7" d="M15.5,30h-6a.5.5,0,0,0,0,1h6a.5.5,0,0,0,0-1Z"/><rect class="cls-8" x="6" y="15" width="36" height="5" rx="0.5"/><path class="cls-9" d="M17,17H11a1,1,0,0,1,0-2h6a1,1,0,0,1,0,2Z"/><path class="cls-9" d="M27,17H21a1,1,0,0,1,0-2h6a1,1,0,0,1,0,2Z"/><path class="cls-10" d="M42,19.5V18H38a1,1,0,0,0,0,2h3.5A.5.5,0,0,0,42,19.5Z"/><path class="cls-7" d="M37,32V30a1,1,0,0,1,2,0v2h1V30a2,2,0,0,0-4,0v2Z"/><rect class="cls-11" x="35" y="31" width="6" height="5" rx="1.5"/><path class="cls-12" d="M38,31H36.5A1.5,1.5,0,0,0,35,32.5v2A1.5,1.5,0,0,0,36.5,36H38Z"/></svg>