<svg id="Layer_1" data-name="Layer 1" xmlns="http://www.w3.org/2000/svg" viewBox="0 0 48 48"><defs><style>.cls-1{fill:#f9c74f;}.cls-2{fill:#f4b527;}.cls-3{fill:#eae2b7;}.cls-4{fill:#e5d285;}.cls-5{fill:#0077b6;}.cls-6{fill:#3fa34d;}.cls-7{fill:#f7f3e2;}.cls-8{fill:#006693;}.cls-9{fill:#3b93b2;}.cls-10{fill:#6bb272;}.cls-11{fill:#288e2d;}.cls-12{fill:#495057;}</style></defs><path class="cls-1" d="M43.91,40.22A.48.48,0,0,0,43.5,40h-4a.48.48,0,0,0-.41.22.47.47,0,0,0-.05.47l2,5a.5.5,0,0,0,.92,0l2-5A.47.47,0,0,0,43.91,40.22Z"/><path class="cls-2" d="M41.5,46a.49.49,0,0,0,.46-.31l2-5a.47.47,0,0,0-.05-.47A.48.48,0,0,0,43.5,40h-2v6Z"/><path class="cls-3" d="M35.5,2h-21A4.51,4.51,0,0,0,10,6.5V38.37L6.07,45.25a.5.5,0,0,0,0,.5A.48.48,0,0,0,6.5,46h25A4.51,4.51,0,0,0,36,41.5V2.5A.5.5,0,0,0,35.5,2Z"/><path class="cls-4" d="M16,2h7a0,0,0,0,1,0,0v8a0,0,0,0,1,0,0H19a3,3,0,0,1-3-3V2A0,0,0,0,1,16,2Z"/><path class="cls-3" d="M10.5,38h-8a.5.5,0,0,0-.5.5v3a4.5,4.5,0,0,0,9,0v-3A.5.5,0,0,0,10.5,38Z"/><path class="cls-4" d="M10.5,38H8v7.72a4.49,4.49,0,0,0,3-4.22v-3A.5.5,0,0,0,10.5,38Z"/><path class="cls-3" d="M38.5,2h-24a.5.5,0,0,0,0,1A3.5,3.5,0,0,1,18,6.5v2A1.5,1.5,0,0,0,19.5,10h22A1.5,1.5,0,0,0,43,8.5v-2A4.51,4.51,0,0,0,38.5,2Z"/><path class="cls-5" d="M41.5,15A2.5,2.5,0,0,0,39,17.5v23a.5.5,0,0,0,.5.5h4a.5.5,0,0,0,.5-.5v-23A2.5,2.5,0,0,0,41.5,15Z"/><circle class="cls-6" cx="10.5" cy="34.5" r="7.5"/><path class="cls-7" d="M32,4H18a1,1,0,0,1,0-2H32a1,1,0,0,1,0,2Z"/><path class="cls-7" d="M10,22V8a1,1,0,0,1,2,0V22a1,1,0,0,1-2,0Z"/><path class="cls-7" d="M34,31V17a1,1,0,0,1,2,0V31a1,1,0,0,1-2,0Z"/><path class="cls-4" d="M41,10H34a1,1,0,0,1,0-2h7a1,1,0,0,1,0,2Z"/><path class="cls-4" d="M31,46H21a1,1,0,0,1,0-2H31a1,1,0,0,1,0,2Z"/><path class="cls-8" d="M44,40.5V24h0a2,2,0,0,0-2,2V41h1.5A.5.5,0,0,0,44,40.5Z"/><path class="cls-9" d="M40,20a3,3,0,0,0,3-3,3,3,0,0,0-.65-1.84A2.38,2.38,0,0,0,41.5,15,2.5,2.5,0,0,0,39,17.5v2.32A3,3,0,0,0,40,20Z"/><path class="cls-10" d="M5,36.5a7.5,7.5,0,0,1,11.71-6.21A7.5,7.5,0,1,0,6.29,40.71,7.51,7.51,0,0,1,5,36.5Z"/><path class="cls-11" d="M14.71,28.29A7.5,7.5,0,0,1,4.29,38.71,7.5,7.5,0,1,0,14.71,28.29Z"/><path class="cls-12" d="M30,36.5v1a.5.5,0,0,1-1,0v-3a1.5,1.5,0,0,0-3,0v3a.5.5,0,0,1-1,0,.5.5,0,0,0-1,0,1.5,1.5,0,0,0,3,0v-3a.5.5,0,0,1,1,0v3a1.5,1.5,0,0,0,3,0v-1a.5.5,0,0,1,1,0,.5.5,0,0,0,1,0,1.5,1.5,0,0,0-3,0Z"/><path class="cls-12" d="M16.5,15a.5.5,0,0,0,0,1h1v4.5a.5.5,0,0,0,1,0V16h1a.5.5,0,0,0,0-1Z"/><path class="cls-12" d="M21.36,21a.5.5,0,0,0,.62-.34l.19-.64h1.66l.19.64a.5.5,0,0,0,.48.36l.14,0a.5.5,0,0,0,.34-.62l-1.5-5A.5.5,0,0,0,23,15h0a.51.51,0,0,0-.48.36l-1.5,5A.5.5,0,0,0,21.36,21ZM23,17.24,23.53,19H22.47Z"/><path class="cls-12" d="M26.24,20.93a.48.48,0,0,0,.26.07.52.52,0,0,0,.43-.24L28,19l1.07,1.79a.52.52,0,0,0,.43.24.48.48,0,0,0,.26-.07.51.51,0,0,0,.17-.69L28.58,18l1.35-2.24a.5.5,0,1,0-.86-.52L28,17l-1.07-1.79a.5.5,0,0,0-.86.52L27.42,18l-1.35,2.24A.51.51,0,0,0,26.24,20.93Z"/><path class="cls-12" d="M22,24.5a.5.5,0,0,0-.5-.5h-7a.5.5,0,0,0,0,1h7A.5.5,0,0,0,22,24.5Z"/><path class="cls-12" d="M26.5,25a.5.5,0,0,0,0-1h-3a.5.5,0,0,0,0,1Z"/><path class="cls-12" d="M19,27.5a.5.5,0,0,0,.5.5h11a.5.5,0,0,0,0-1h-11A.5.5,0,0,0,19,27.5Z"/><path class="cls-12" d="M26,30.5a.5.5,0,0,0-.5-.5h-6a.5.5,0,0,0,0,1h6A.5.5,0,0,0,26,30.5Z"/><path class="cls-12" d="M7.5,38a.47.47,0,0,0,.35-.15l6-6a.49.49,0,0,0-.7-.7l-6,6a.48.48,0,0,0,0,.7A.47.47,0,0,0,7.5,38Z"/><path class="cls-12" d="M8.5,33A1.5,1.5,0,1,0,7,31.5,1.5,1.5,0,0,0,8.5,33Zm0-2a.5.5,0,1,1-.5.5A.5.5,0,0,1,8.5,31Z"/><path class="cls-12" d="M12.5,36A1.5,1.5,0,1,0,14,37.5,1.5,1.5,0,0,0,12.5,36Zm0,2a.5.5,0,1,1,.5-.5A.5.5,0,0,1,12.5,38Z"/></svg>