<svg id="Layer_1" data-name="Layer 1" xmlns="http://www.w3.org/2000/svg" viewBox="0 0 601.48 571.6"><defs><style>.cls-1{fill:#262d3d;}.cls-2{fill:#3c405c;}.cls-3{fill:#b1becf;}.cls-4{fill:#2f394d;}.cls-5{fill:#9398b3;}.cls-6{fill:#414042;opacity:0.7;}.cls-7{fill:#6f81c7;}.cls-8{fill:#ffd864;}.cls-9{fill:#333;}.cls-10{fill:#f2f2f2;}.cls-11{fill:#3694a7;}.cls-12{fill:none;stroke:#ccc;stroke-width:6.17px;}.cls-12,.cls-14,.cls-15,.cls-16{stroke-miterlimit:10;}.cls-13{font-size:162.19px;}.cls-13,.cls-14,.cls-15,.cls-16{font-family:BebasNeueBold, Bebas Neue;}.cls-14{font-size:332.25px;stroke:#4464af;}.cls-14,.cls-15,.cls-16{stroke-width:3px;}.cls-15{font-size:280.12px;fill:#af0419;stroke:#cddc29;}.cls-16{font-size:259.08px;stroke:#2c3b96;}</style></defs><title>uskp</title><path class="cls-1" d="M311.84,242.77l-.46,0L298.64,252l-12.4-7.9-87.06-53.22,1.54,63.79c0,14.06,43,37.89,96.1,37.89a180.34,180.34,0,0,0,20.68-1.2v-8.45c0-13.51-3.38-30.36-5.25-38.38C312.1,243.85,312,243.29,311.84,242.77Z" transform="translate(-86.31 -26.36)"/><path class="cls-1" d="M318.79,238.93c0,13.15,0,18.9,7.31,51.57,37.31-7.17,66.81-25,66.81-35.88l1.76-61.2Z" transform="translate(-86.31 -26.36)"/><path class="cls-2" d="M112.78,106.81h0v.06c-6.13,20.4,1,34.92,1,34.92l182.6,114.75.44-38.36Z" transform="translate(-86.31 -26.36)"/><path class="cls-3" d="M476.25,112.37,472,114v0l-.14.08-1.32.52v.28L298.63,218.33l-2.42,22.44,1-.63v3.91L475.5,133.92C474.51,129.29,474.18,118.72,476.25,112.37Z" transform="translate(-86.31 -26.36)"/><polygon class="cls-4" points="394.57 80.44 210.51 191.97 26.46 80.44 210.51 0 394.57 80.44"/><path class="cls-5" d="M299.93,248.33a66.77,66.77,0,0,1,1.34-26.65L480.88,111.86V106.8l-184,111.5a70.54,70.54,0,0,0-.47,38.23L480.31,141.12v-5Z" transform="translate(-86.31 -26.36)"/><polygon class="cls-6" points="216.74 209.24 218.66 212.91 222.25 210.69 216.74 209.24"/><path class="cls-7" d="M328.51,307v-31.3c0-45.23-12.89-48-12.89-48l-12.57,8s12.68,1.17,12.68,48v30.71l7.35-11Z" transform="translate(-86.31 -26.36)"/><path class="cls-8" d="M664.74,455.2l-61.39-60.9a202.87,202.87,0,0,1-116,113.94l62.91,62.41,137.58,22Z" transform="translate(-86.31 -26.36)"/><path class="cls-8" d="M603.35,394.3a202.87,202.87,0,0,1-116,113.94l62.91,62.41L664.74,455.2Z" transform="translate(-86.31 -26.36)"/><path class="cls-9" d="M641.68,585.24l46.11,7.36-8.36-49.8C661.79,551.66,643.66,565.77,641.68,585.24Z" transform="translate(-86.31 -26.36)"/><path class="cls-10" d="M613,415.69a73.11,73.11,0,0,1-103.4,103.4l-167-167L446,248.65Z" transform="translate(-86.31 -26.36)"/><path class="cls-11" d="M444.4,233.47,619.82,408.89a82.73,82.73,0,1,1-117,117L327.4,350.47,341,336.87,516.42,512.28a63.49,63.49,0,0,0,89.8-89.79L430.8,247.07Z" transform="translate(-86.31 -26.36)"/><line class="cls-12" x1="275.02" y1="306.94" x2="346.42" y2="378.34"/><line class="cls-12" x1="307.97" y1="273.99" x2="348.38" y2="314.4"/><line class="cls-12" x1="340.92" y1="241.04" x2="507.96" y2="408.08"/><text class="cls-13" transform="translate(0 408.7) scale(1.15 1)">uskp</text><text class="cls-14" transform="translate(299.92 506.77) scale(1.15 1)">A</text><text class="cls-15" transform="translate(382.35 441.17) scale(1.15 1)">B</text><text class="cls-16" transform="translate(459.84 523.72) scale(1.15 1)">C</text></svg>